<svg width="152" height="132" viewBox="0 0 152 132" fill="none" xmlns="http://www.w3.org/2000/svg">
<g filter="url(#filter0_d_9_407)">
<ellipse cx="75.7747" cy="109.5" rx="7.43294" ry="7.5" fill="white"/>
<path d="M82.2077 109.5C82.2077 113.098 79.3191 116 75.7747 116C72.2304 116 69.3418 113.098 69.3418 109.5C69.3418 105.902 72.2304 103 75.7747 103C79.3191 103 82.2077 105.902 82.2077 109.5Z" stroke="#5E80FE" stroke-width="2"/>
</g>
<g filter="url(#filter1_d_9_407)">
<mask id="path-3-inside-1_9_407" fill="white">
<path fill-rule="evenodd" clip-rule="evenodd" d="M121.859 23C121.859 21.3431 120.516 20 118.859 20H33.6816C32.0248 20 30.6816 21.3431 30.6816 23V80.26C30.6816 81.9168 32.0248 83.26 33.6816 83.26H69.9739C70.9743 83.26 71.9089 83.7587 72.4659 84.5897L73.7782 86.5476C74.9665 88.3206 77.5739 88.3206 78.7623 86.5476L80.0745 84.5897C80.6315 83.7587 81.5661 83.26 82.5666 83.26H118.859C120.516 83.26 121.859 81.9168 121.859 80.26V23Z"/>
</mask>
<path fill-rule="evenodd" clip-rule="evenodd" d="M121.859 23C121.859 21.3431 120.516 20 118.859 20H33.6816C32.0248 20 30.6816 21.3431 30.6816 23V80.26C30.6816 81.9168 32.0248 83.26 33.6816 83.26H69.9739C70.9743 83.26 71.9089 83.7587 72.4659 84.5897L73.7782 86.5476C74.9665 88.3206 77.5739 88.3206 78.7623 86.5476L80.0745 84.5897C80.6315 83.7587 81.5661 83.26 82.5666 83.26H118.859C120.516 83.26 121.859 81.9168 121.859 80.26V23Z" fill="white"/>
<path d="M80.0745 84.5897L79.2438 84.033L80.0745 84.5897ZM73.7782 86.5476L74.6089 85.9909L73.7782 86.5476ZM78.7623 86.5476L79.5929 87.1044L78.7623 86.5476ZM72.4659 84.5897L73.2966 84.033L72.4659 84.5897ZM33.6816 21H118.859V19H33.6816V21ZM31.6816 80.26V23H29.6816V80.26H31.6816ZM69.9739 82.26H33.6816V84.26H69.9739V82.26ZM74.6089 85.9909L73.2966 84.033L71.6352 85.1465L72.9475 87.1044L74.6089 85.9909ZM79.2438 84.033L77.9316 85.9909L79.5929 87.1044L80.9052 85.1465L79.2438 84.033ZM118.859 82.26H82.5666V84.26H118.859V82.26ZM120.859 23V80.26H122.859V23H120.859ZM118.859 84.26C121.068 84.26 122.859 82.4691 122.859 80.26H120.859C120.859 81.3645 119.964 82.26 118.859 82.26V84.26ZM80.9052 85.1465C81.2765 84.5924 81.8996 84.26 82.5666 84.26V82.26C81.2326 82.26 79.9865 82.9249 79.2438 84.033L80.9052 85.1465ZM72.9475 87.1044C74.5319 89.4684 78.0085 89.4684 79.5929 87.1044L77.9316 85.9909C77.1394 87.1729 75.4011 87.1729 74.6089 85.9909L72.9475 87.1044ZM69.9739 84.26C70.6408 84.26 71.2639 84.5924 71.6352 85.1465L73.2966 84.033C72.5539 82.9249 71.3078 82.26 69.9739 82.26V84.26ZM29.6816 80.26C29.6816 82.4691 31.4725 84.26 33.6816 84.26V82.26C32.5771 82.26 31.6816 81.3645 31.6816 80.26H29.6816ZM118.859 21C119.964 21 120.859 21.8954 120.859 23H122.859C122.859 20.7909 121.068 19 118.859 19V21ZM33.6816 19C31.4725 19 29.6816 20.7909 29.6816 23H31.6816C31.6816 21.8954 32.5771 21 33.6816 21V19Z" fill="#D8E0F7" mask="url(#path-3-inside-1_9_407)"/>
<path d="M59.4224 53.25C59.4224 43.7231 67.0221 36 76.3969 36C78.1247 36 79.7923 36.2624 81.3631 36.75" stroke="#5F82FF" stroke-width="4" stroke-linecap="round" stroke-linejoin="round"/>
<path fill-rule="evenodd" clip-rule="evenodd" d="M72.7436 56.9623C74.7611 59.0126 78.0321 59.0126 80.0497 56.9623C82.0672 54.912 90.419 40.5 89.6809 39.75C88.9429 39 74.7611 47.4874 72.7436 49.5377C70.7261 51.5879 70.7261 54.912 72.7436 56.9623ZM76.3967 54.75C77.2119 54.75 77.8727 54.0785 77.8727 53.25C77.8727 52.4216 77.2119 51.75 76.3967 51.75C75.5815 51.75 74.9206 52.4216 74.9206 53.25C74.9206 54.0785 75.5815 54.75 76.3967 54.75Z" fill="#5F82FF"/>
<ellipse cx="61.6362" cy="62.25" rx="1.47605" ry="1.5" fill="#5F82FF"/>
<ellipse cx="67.5405" cy="68.25" rx="1.47605" ry="1.5" fill="#5F82FF"/>
<ellipse cx="76.3967" cy="70.5" rx="1.47605" ry="1.5" fill="#5F82FF"/>
<ellipse cx="85.2531" cy="68.25" rx="1.47605" ry="1.5" fill="#5F82FF"/>
<ellipse cx="90.4194" cy="62.25" rx="1.47605" ry="1.5" fill="#5F82FF"/>
<ellipse cx="92.6333" cy="53.25" rx="1.47605" ry="1.5" fill="#5F82FF"/>
</g>
<defs>
<filter id="filter0_d_9_407" x="53.3418" y="87" width="44.866" height="45" filterUnits="userSpaceOnUse" color-interpolation-filters="sRGB">
<feFlood flood-opacity="0" result="BackgroundImageFix"/>
<feColorMatrix in="SourceAlpha" type="matrix" values="0 0 0 0 0 0 0 0 0 0 0 0 0 0 0 0 0 0 127 0" result="hardAlpha"/>
<feOffset/>
<feGaussianBlur stdDeviation="7.5"/>
<feColorMatrix type="matrix" values="0 0 0 0 0.323144 0 0 0 0 0.512664 0 0 0 0 1 0 0 0 0.25 0"/>
<feBlend mode="normal" in2="BackgroundImageFix" result="effect1_dropShadow_9_407"/>
<feBlend mode="normal" in="SourceGraphic" in2="effect1_dropShadow_9_407" result="shape"/>
</filter>
<filter id="filter1_d_9_407" x="0.681641" y="0" width="151.177" height="127.877" filterUnits="userSpaceOnUse" color-interpolation-filters="sRGB">
<feFlood flood-opacity="0" result="BackgroundImageFix"/>
<feColorMatrix in="SourceAlpha" type="matrix" values="0 0 0 0 0 0 0 0 0 0 0 0 0 0 0 0 0 0 127 0" result="hardAlpha"/>
<feOffset dy="10"/>
<feGaussianBlur stdDeviation="15"/>
<feColorMatrix type="matrix" values="0 0 0 0 0.894415 0 0 0 0 0.918495 0 0 0 0 0.984716 0 0 0 1 0"/>
<feBlend mode="normal" in2="BackgroundImageFix" result="effect1_dropShadow_9_407"/>
<feBlend mode="normal" in="SourceGraphic" in2="effect1_dropShadow_9_407" result="shape"/>
</filter>
</defs>
</svg>
